{
  "accessors": [
    {
      "bufferView": 2,
      "componentType": 5126,
      "count": 1308,
      "max": [
        1.0,
        1.9081252813339233,
        0.841826319694519
      ],
      "min": [
        -1.0,
        -1.0,
        -1.4917826652526855
      ],
      "type": "VEC3"
    },
    {
      "bufferView": 2,
      "byteOffset": 15696,
      "componentType": 5126,
      "count": 1308,
      "type": "VEC3"
    },
    {
      "bufferView": 1,
      "componentType": 5126,
      "count": 1308,
      "type": "VEC2"
    },
    {
      "bufferView": 0,
      "componentType": 5125,
      "count": 5148,
      "type": "SCALAR"
    },
    {
      "bufferView": 2,
      "byteOffset": 31392,
      "componentType": 5126,
      "count": 23479,
      "max": [
        1.720582365989685,
        1.9311060905456543,
        0.9543899297714233
      ],
      "min": [
        -1.6754751205444336,
        -1.5733469724655151,
        -1.5380256175994873
      ],
      "type": "VEC3"
    },
    {
      "bufferView": 2,
      "byteOffset": 313140,
      "componentType": 5126,
      "count": 23479,
      "type": "VEC3"
    },
    {
      "bufferView": 1,
      "byteOffset": 10464,
      "componentType": 5126,
      "count": 23479,
      "type": "VEC2"
    },
    {
      "bufferView": 0,
      "byteOffset": 20592,
      "componentType": 5125,
      "count": 85125,
      "type": "SCALAR"
    },
    {
      "bufferView": 2,
      "byteOffset": 594888,
      "componentType": 5126,
      "count": 4414,
      "max": [
        1.5977990627288818,
        2.0258846282958984,
        0.42293572425842285
      ],
      "min": [
        -1.5977991819381714,
        -1.5324747562408447,
        -1.2134640216827393
      ],
      "type": "VEC3"
    },
    {
      "bufferView": 2,
      "byteOffset": 647856,
      "componentType": 5126,
      "count": 4414,
      "type": "VEC3"
    },
    {
      "bufferView": 1,
      "byteOffset": 198296,
      "componentType": 5126,
      "count": 4414,
      "type": "VEC2"
    },
    {
      "bufferView": 0,
      "byteOffset": 361092,
      "componentType": 5125,
      "count": 13200,
      "type": "SCALAR"
    },
    {
      "bufferView": 2,
      "byteOffset": 700824,
      "componentType": 5126,
      "count": 398,
      "max": [
        0.5273179411888123,
        1.032012939453125,
        0.9091998338699341
      ],
      "min": [
        -0.5273179411888123,
        -0.022623002529144287,
        0.8506036996841431
      ],
      "type": "VEC3"
    },
    {
      "bufferView": 2,
      "byteOffset": 705600,
      "componentType": 5126,
      "count": 398,
      "type": "VEC3"
    },
    {
      "bufferView": 1,
      "byteOffset": 233608,
      "componentType": 5126,
      "count": 398,
      "type": "VEC2"
    },
    {
      "bufferView": 0,
      "byteOffset": 413892,
      "componentType": 5125,
      "count": 1524,
      "type": "SCALAR"
    },
    {
      "bufferView": 2,
      "byteOffset": 710376,
      "componentType": 5126,
      "count": 262,
      "max": [
        0.2940160036087036,
        0.6505926251411438,
        0.9271823763847351
      ],
      "min": [
        -0.29401594400405884,
        0.42267435789108276,
        0.8971823453903198
      ],
      "type": "VEC3"
    },
    {
      "bufferView": 2,
      "byteOffset": 713520,
      "componentType": 5126,
      "count": 262,
      "type": "VEC3"
    },
    {
      "bufferView": 1,
      "byteOffset": 236792,
      "componentType": 5126,
      "count": 262,
      "type": "VEC2"
    },
    {
      "bufferView": 0,
      "byteOffset": 419988,
      "componentType": 5125,
      "count": 600,
      "type": "SCALAR"
    }
  ],
  "asset": {
    "generator": "fab-model-conversion",
    "version": "2.0"
  },
  "bufferViews": [
    {
      "buffer": 0,
      "byteLength": 422388,
      "target": 34963
    },
    {
      "buffer": 0,
      "byteLength": 238888,
      "byteOffset": 422388,
      "byteStride": 8,
      "target": 34962
    },
    {
      "buffer": 0,
      "byteLength": 716664,
      "byteOffset": 661276,
      "byteStride": 12,
      "target": 34962
    }
  ],
  "buffers": [
    {
      "byteLength": 1377940,
      "uri": "scene.bin"
    }
  ],
  "materials": [
    {
      "doubleSided": true,
      "name": "Plastik",
      "pbrMetallicRoughness": {
        "baseColorFactor": [
          1.0,
          0.124815,
          0.0,
          1.0
        ],
        "metallicFactor": 0.0,
        "roughnessFactor": 0.333333
      }
    },
    {
      "doubleSided": true,
      "name": "Scratch_Metal",
      "pbrMetallicRoughness": {
        "baseColorFactor": [
          0.8,
          0.8,
          0.8,
          1.0
        ],
        "roughnessFactor": 0.5
      }
    },
    {
      "doubleSided": true,
      "name": "Darker_Metal",
      "pbrMetallicRoughness": {
        "baseColorFactor": [
          0.0522379,
          0.0486764,
          0.0486764,
          1.0
        ],
        "roughnessFactor": 0.4
      }
    },
    {
      "doubleSided": true,
      "name": "Layar",
      "pbrMetallicRoughness": {
        "baseColorFactor": [
          0.00489447,
          0.00489447,
          0.00489447,
          1.0
        ],
        "metallicFactor": 0.0,
        "roughnessFactor": 0.0
      }
    },
    {
      "doubleSided": true,
      "emissiveFactor": [
        0.897099,
        0.897099,
        0.897099
      ],
      "name": "Material.001"
    }
  ],
  "meshes": [
    {
      "name": "Object_0",
      "primitives": [
        {
          "attributes": {
            "NORMAL": 1,
            "POSITION": 0,
            "TEXCOORD_0": 2
          },
          "indices": 3,
          "material": 0,
          "mode": 4
        }
      ]
    },
    {
      "name": "Object_1",
      "primitives": [
        {
          "attributes": {
            "NORMAL": 5,
            "POSITION": 4,
            "TEXCOORD_0": 6
          },
          "indices": 7,
          "material": 1,
          "mode": 4
        }
      ]
    },
    {
      "name": "Object_2",
      "primitives": [
        {
          "attributes": {
            "NORMAL": 9,
            "POSITION": 8,
            "TEXCOORD_0": 10
          },
          "indices": 11,
          "material": 2,
          "mode": 4
        }
      ]
    },
    {
      "name": "Object_3",
      "primitives": [
        {
          "attributes": {
            "NORMAL": 13,
            "POSITION": 12,
            "TEXCOORD_0": 14
          },
          "indices": 15,
          "material": 3,
          "mode": 4
        }
      ]
    },
    {
      "name": "Object_4",
      "primitives": [
        {
          "attributes": {
            "NORMAL": 17,
            "POSITION": 16,
            "TEXCOORD_0": 18
          },
          "indices": 19,
          "material": 4,
          "mode": 4
        }
      ]
    }
  ],
  "nodes": [
    {
      "children": [
        1
      ],
      "matrix": [
        1.0,
        0.0,
        0.0,
        0.0,
        0.0,
        2.220446049250313e-16,
        -1.0,
        0.0,
        0.0,
        1.0,
        2.220446049250313e-16,
        0.0,
        0.0,
        0.0,
        0.0,
        1.0
      ],
      "name": "Sketchfab_model"
    },
    {
      "children": [
        2
      ],
      "name": "root"
    },
    {
      "children": [
        3
      ],
      "matrix": [
        1.0,
        0.0,
        0.0,
        0.0,
        0.0,
        2.220446049250313e-16,
        1.0,
        0.0,
        0.0,
        -1.0,
        2.220446049250313e-16,
        0.0,
        0.0,
        0.0,
        0.0,
        1.0
      ],
      "name": "GLTF_SceneRootNode"
    },
    {
      "children": [
        4,
        5,
        6,
        7,
        8
      ],
      "matrix": [
        1.0,
        0.0,
        0.0,
        0.0,
        0.0,
        1.0,
        0.0,
        0.0,
        0.0,
        0.0,
        1.0,
        0.0,
        0.0,
        1.5865898132324219,
        0.0,
        1.0
      ],
      "name": "The Box Bot_0"
    },
    {
      "mesh": 0,
      "name": "Object_4"
    },
    {
      "mesh": 1,
      "name": "Object_5"
    },
    {
      "mesh": 2,
      "name": "Object_6"
    },
    {
      "mesh": 3,
      "name": "Object_7"
    },
    {
      "mesh": 4,
      "name": "Object_8"
    }
  ],
  "scene": 0,
  "scenes": [
    {
      "name": "Sketchfab_Scene",
      "nodes": [
        0
      ]
    }
  ]
}
